<svg width="9" height="14" viewBox="0 0 9 14" fill="none" xmlns="http://www.w3.org/2000/svg">
<path d="M0.46343 1.76842C0.266298 1.56842 0.15678 1.30526 0.167732 1.03158C0.167732 0.757894 0.27725 0.505262 0.485334 0.305262C0.682465 0.115788 0.956259 -1.61526e-06 1.24101 -1.59037e-06C1.52575 -1.56547e-06 1.79955 0.0947365 2.00763 0.28421L8.20633 6.2421C8.30489 6.33684 8.38155 6.45263 8.43631 6.57895C8.49107 6.70526 8.52393 6.8421 8.52393 6.97895C8.52393 7.11579 8.49107 7.25263 8.43631 7.38947C8.38155 7.51579 8.30489 7.63158 8.20633 7.72632L2.00763 13.6842C1.90906 13.7789 1.78859 13.8632 1.65717 13.9158C1.5148 13.9684 1.37243 14 1.23005 14C1.08768 14 0.934354 13.9789 0.802933 13.9263C0.671512 13.8737 0.551043 13.7895 0.441525 13.6947C0.342959 13.6 0.266297 13.4737 0.211538 13.3474C0.145827 13.2211 0.123924 13.0842 0.123924 12.9368C0.123924 12.8 0.156779 12.6632 0.211538 12.5368C0.266297 12.4105 0.353912 12.2947 0.463429 12.1895L5.88455 6.97895L4.85509 6L0.46343 1.76842Z" fill="#181725"/>
</svg>
