<svg width="23" height="21" viewBox="0 0 23 21" fill="none" xmlns="http://www.w3.org/2000/svg">
<path d="M8.62971 20.3517C7.98116 20.3517 7.35917 20.0941 6.90058 19.6355C6.44198 19.1769 6.18435 18.5549 6.18435 17.9064C6.18435 17.2578 6.44198 16.6358 6.90058 16.1772C7.35917 15.7186 7.98116 15.461 8.62971 15.461C9.27826 15.461 9.90025 15.7186 10.3588 16.1772C10.8174 16.6358 11.0751 17.2578 11.0751 17.9064C11.0751 18.5549 10.8174 19.1769 10.3588 19.6355C9.90025 20.0941 9.27826 20.3517 8.62971 20.3517ZM17.1885 20.3517C16.5399 20.3517 15.9179 20.0941 15.4594 19.6355C15.0008 19.1769 14.7431 18.5549 14.7431 17.9064C14.7431 17.2578 15.0008 16.6358 15.4594 16.1772C15.9179 15.7186 16.5399 15.461 17.1885 15.461C17.837 15.461 18.459 15.7186 18.9176 16.1772C19.3762 16.6358 19.6338 17.2578 19.6338 17.9064C19.6338 18.5549 19.3762 19.1769 18.9176 19.6355C18.459 20.0941 17.837 20.3517 17.1885 20.3517ZM1.24716 3.14004C0.94193 3.13019 0.652496 3.00202 0.440063 2.78262C0.227631 2.56323 0.108856 2.26981 0.108856 1.96443C0.108856 1.65904 0.227631 1.36562 0.440063 1.14623C0.652496 0.926835 0.94193 0.798663 1.24716 0.788818L2.65446 0.788818C3.75732 0.788818 4.71102 1.55422 4.95066 2.63018L6.48268 9.52855C6.72233 10.6045 7.67602 11.3699 8.77888 11.3699H17.9637L19.7268 4.31503H8.30081C7.99845 4.30124 7.71305 4.17142 7.50397 3.95257C7.29488 3.73373 7.17821 3.44271 7.17821 3.14004C7.17821 2.83737 7.29488 2.54634 7.50397 2.3275C7.71305 2.10866 7.99845 1.97884 8.30081 1.96504H19.7268C20.0842 1.96493 20.437 2.04632 20.7582 2.20301C21.0795 2.35971 21.3608 2.58758 21.5807 2.86931C21.8007 3.15105 21.9535 3.47922 22.0276 3.82889C22.1017 4.17856 22.0951 4.54052 22.0083 4.88725L20.2452 11.9397C20.1181 12.4486 19.8245 12.9003 19.4111 13.2231C18.9977 13.5459 18.4882 13.7212 17.9637 13.7211H8.77888C7.70878 13.7213 6.67064 13.3564 5.8359 12.6869C5.00116 12.0173 4.41976 11.083 4.18771 10.0384L2.65446 3.14004H1.24716Z" fill="#53B175"/>
</svg>
