<svg width="15" height="16" viewBox="0 0 15 16" fill="none" xmlns="http://www.w3.org/2000/svg">
<path d="M14.2721 13.192L14.2711 13.191L9.87932 8.9593L9.87908 8.95907L8.88748 8.01613L14.2711 2.84164C14.3841 2.73306 14.4762 2.61198 14.5342 2.4781C14.5913 2.34655 14.626 2.20294 14.626 2.05819C14.626 1.90653 14.6035 1.7615 14.5335 1.62615C14.4771 1.49647 14.3974 1.36455 14.293 1.26422L14.2931 1.26417L14.2911 1.26246C14.1792 1.16569 14.054 1.07771 13.9155 1.02227C13.7765 0.966595 13.6165 0.944995 13.4698 0.944995C13.32 0.944995 13.1717 0.978215 13.0253 1.03231L13.0253 1.03229L13.0241 1.03279C12.8856 1.08824 12.7599 1.17641 12.6575 1.27475L6.45861 7.23288C6.35471 7.33274 6.27446 7.45424 6.21739 7.58589L6.21737 7.58588L6.21684 7.5872C6.16042 7.72819 6.12564 7.87145 6.12564 8.01632C6.12564 8.16107 6.16036 8.30468 6.21739 8.43622C6.27446 8.56787 6.35471 8.68938 6.45861 8.78924L12.6575 14.7474L12.6575 14.7474L12.6585 14.7483C12.8769 14.9471 13.1631 15.0455 13.4588 15.0455C13.7569 15.0455 14.043 14.9245 14.2492 14.7263C14.4664 14.5176 14.5819 14.2525 14.5822 13.9649C14.5934 13.6766 14.4778 13.4007 14.2721 13.192Z" fill="#B3B3B3" stroke="#B3B3B3" stroke-width="0.1"/>
<path d="M0.717895 2.79865L0.718812 2.79955L5.11064 7.0313L5.11088 7.03153L6.10248 7.97447L0.718856 13.149C0.605883 13.2575 0.513768 13.3786 0.45573 13.5125C0.398704 13.644 0.363986 13.7877 0.363986 13.9324C0.363986 14.0841 0.386426 14.2291 0.45643 14.3644C0.512833 14.4941 0.59257 14.6261 0.696952 14.7264L0.696904 14.7264L0.698889 14.7281C0.81075 14.8249 0.935984 14.9129 1.07443 14.9683C1.21344 15.024 1.3735 15.0456 1.52016 15.0456C1.66994 15.0456 1.8183 15.0124 1.96463 14.9583L1.96464 14.9583L1.96588 14.9578C2.10433 14.9024 2.2301 14.8142 2.33241 14.7159L8.53135 8.75772C8.63525 8.65786 8.7155 8.53636 8.77257 8.40471L8.77259 8.40472L8.77312 8.4034C8.82954 8.26241 8.86432 8.11915 8.86432 7.97428C8.86432 7.82953 8.8296 7.68592 8.77257 7.55438C8.7155 7.42273 8.63525 7.30122 8.53135 7.20136L2.33241 1.24323L2.33242 1.24322L2.33143 1.24231C2.1131 1.04351 1.82685 0.945057 1.53111 0.945057C1.23305 0.945057 0.94693 1.06612 0.740762 1.26428C0.523577 1.47303 0.408062 1.73813 0.407796 2.02568C0.396552 2.31397 0.512113 2.58987 0.717895 2.79865Z" fill="#B3B3B3" stroke="#B3B3B3" stroke-width="0.1"/>
</svg>
