<svg width="47" height="46" viewBox="0 0 47 46" fill="none" xmlns="http://www.w3.org/2000/svg">
<rect x="0.90918" y="0.762207" width="44.67" height="44.6684" rx="16.5" stroke="#F0F0F0"/>
<path d="M31.7441 23.0965C31.7441 23.4724 31.6 23.8357 31.3306 24.0987C31.0674 24.3681 30.704 24.5184 30.328 24.5184H24.6634H21.8249H16.1603C15.7843 24.5184 15.4209 24.3681 15.1577 24.0987C14.8945 23.8357 14.7441 23.4724 14.7441 23.0965C14.7441 22.7207 14.8945 22.3637 15.1577 22.0943C15.4209 21.8312 15.7843 21.6809 16.1603 21.6809H21.8249H24.6634H30.328C30.704 21.6809 31.0674 21.8312 31.3306 22.0943C31.6 22.3637 31.7441 22.7207 31.7441 23.0965Z" fill="#B3B3B3"/>
</svg>
