<svg width="47" height="47" viewBox="0 0 47 47" fill="none" xmlns="http://www.w3.org/2000/svg">
<rect x="1.47461" y="1.39282" width="44.67" height="44.6684" rx="16.5" stroke="#E2E2E2"/>
<path d="M32.3096 23.7271C32.3096 24.1029 32.1654 24.4662 31.896 24.7293C31.6328 24.9986 31.2694 25.1489 30.8934 25.1489H25.2288V30.8114C25.2288 31.1873 25.0785 31.5506 24.809 31.8136C24.5458 32.0767 24.1887 32.2271 23.8127 32.2271C23.4367 32.2271 23.0733 32.0767 22.8101 31.8136C22.5407 31.5506 22.3903 31.1873 22.3903 30.8114V25.1489H16.7257C16.3497 25.1489 15.9863 24.9986 15.7231 24.7293C15.46 24.4662 15.3096 24.1029 15.3096 23.7271C15.3096 23.3512 15.46 22.9942 15.7231 22.7248C15.9863 22.4618 16.3497 22.3114 16.7257 22.3114H22.3903V16.6489C22.3903 16.2731 22.5407 15.9098 22.8101 15.6467C23.0733 15.3774 23.4367 15.2271 23.8127 15.2271C24.1887 15.2271 24.5458 15.3774 24.809 15.6467C25.0785 15.9098 25.2288 16.2731 25.2288 16.6489V22.3114H30.8934C31.2694 22.3114 31.6328 22.4618 31.896 22.7248C32.1654 22.9942 32.3096 23.3512 32.3096 23.7271Z" fill="#53B175"/>
</svg>
